<svg xmlns="http://www.w3.org/2000/svg" xmlns:xlink="http://www.w3.org/1999/xlink" xmlns:fi="http://pattern.flaticon.com/" x="0" y="0" width="700" height="350" viewBox="0 0 700 350"><rect x="0px" y="0px" width="100%" height="100%" opacity="1" fill="#ffc5b2"/><defs><g transform="matrix(0.31047615433765297 0.08319183482389472 -0.08319183482389472 0.31047615433765297 318.1801946720274 294.8864809213369)" id="L1_180"><path d="M216,70h-1V40H65v30h-1c-18.777,0-34,15.223-34,34v46h220v-46   C250,85.223,234.777,70,216,70z" id="XMLID_1428_" fill="#eeeeef"/><path d="M140,40H65v30h-1c-18.777,0-34,15.223-34,34v46h110V40z" id="XMLID_1429_" fill="#dedde0"/><path d="M140,120H30v126c0,18.777,15.223,34,34,34h152c18.777,0,34-15.223,34-34V120H140z" id="XMLID_1430_" fill="#ff5023"/><path d="M140,120H30v126c0,18.777,15.223,34,34,34h76V120z" id="XMLID_1431_" fill="#bd3c1a"/><path d="M180,190c0-22.092-17.909-40-40-40s-40,17.908-40,40H80v40h120v-40H180z" id="XMLID_1432_" fill="#ffffff"/><path d="M100,190H80v40h60v-40v-40C117.909,150,100,167.908,100,190z" id="XMLID_1433_" fill="#ffe98f"/><path d="M30,70c27.499,0,27.499,20,54.998,20c27.497,0,27.497-20,54.996-20   c27.502,0,27.502,20,55.003,20S222.498,70,250,70l-30-30l-80-10L60,40L30,70z" id="XMLID_1434_" fill="#ff5023"/><path d="M220,0H120v40h100c11.046,0,20-8.954,20-20S231.046,0,220,0z" id="XMLID_1435_" fill="#bd3c1a"/><path d="M140,0H60C48.954,0,40,8.954,40,20s8.954,20,20,20h80V0z" id="XMLID_1436_" fill="#802812"/></g><g transform="matrix(0.0625 0 0 0.0625 252.5 340)" id="L1_181"><path d="M320,167.5V140L98.216,66.398c-7.854-2.635-16.357,1.596-18.992,9.449   c-2.63,7.842-11.15,12.081-18.992,9.449c-7.842-2.63-12.081-11.149-9.45-18.991c1.175-3.505,3.589-6.438,6.797-8.264   c7.202-4.092,9.721-13.25,5.625-20.453c-4.094-7.201-13.253-9.72-20.454-5.625c-9.634,5.477-16.883,14.286-20.41,24.801   c-7.892,23.525,4.826,49.083,28.351,56.976c18.54,6.22,38.335-0.366,49.759-14.949l204.814,68.71H320V167.5z" id="XMLID_1784_" fill="#acabb1"/><path d="M159.991,86.898l-61.775-20.5c-7.854-2.635-16.357,1.596-18.992,9.449   c-2.63,7.842-11.15,12.081-18.992,9.449c-7.842-2.63-12.081-11.149-9.45-18.991c1.175-3.505,3.589-6.438,6.797-8.264   c7.202-4.092,9.721-13.25,5.625-20.453c-4.094-7.201-13.253-9.72-20.454-5.625c-9.634,5.477-16.883,14.286-20.41,24.801   c-7.892,23.525,4.826,49.083,28.351,56.976c18.54,6.22,38.335-0.366,49.759-14.949l59.54,19.974V86.898H159.991z" id="XMLID_1785_" fill="#808084"/><rect x="10px" y="161px" width="300px" height="110px" id="XMLID_1786_" fill="#91dc5a"/><rect x="10px" y="161px" width="150px" height="110px" id="XMLID_1787_" fill="#64c37d"/><rect x="0px" y="260px" width="320px" height="30px" id="XMLID_1788_" fill="#dedde0"/><rect x="0px" y="140px" width="320px" height="30px" id="XMLID_1789_" fill="#dedde0"/><rect x="0px" y="140px" width="160px" height="30px" id="XMLID_1790_" fill="#cdcdd0"/><path d="M240.999,216.682c12.5-8.332,8.334-24.999,8.334-24.999   c-25,0-33.332,24.999-33.332,24.999s8.332,25.001,33.332,25.001C249.333,241.683,253.499,225.017,240.999,216.682z" id="XMLID_1791_" fill="#dedde0"/><path d="M230,216.682c0,0-60,27.309-100,27.309s-60-27.309-60-27.309s20-27.691,60-27.691   S230,216.682,230,216.682z" id="XMLID_1792_" fill="#ffffff"/><path d="M160,192.76c-10.41-2.281-20.741-3.77-30-3.77c-40,0-60,27.691-60,27.691   s20,27.309,60,27.309c9.259,0,19.59-1.468,30-3.717V192.76z" id="XMLID_1793_" fill="#dedde0"/><rect x="0px" y="260px" width="160px" height="30px" id="XMLID_1794_" fill="#cdcdd0"/></g><g transform="matrix(0.22864161431789398 0 0 0.22864161431789398 315 140)" id="L1_182"><path d="M253.078,66.162c-4.627,17.916-51.946,21.189-105.693,7.312   c-53.747-13.879-93.568-39.65-88.942-57.565C63.07-2.008,110.389-5.283,164.137,8.596c37.561,9.698,68.32,25.206,81.861,39.782   C251.833,54.66,253.078,60.368,253.078,66.162z" id="XMLID_30_" fill="#acabb1"/><path d="M152.995,5.951c-48.997-10.693-90.248-6.709-94.552,9.958   c-4.626,17.915,35.195,43.687,88.941,57.564c1.881,0.486,3.747,0.933,5.61,1.376L152.995,5.951L152.995,5.951z" id="XMLID_1806_" fill="#808084"/><path d="M243.078,286.156 63.078,286.156 63.078,216.16 73.078,186.156    63.078,156.158 63.078,86.156 243.078,86.156 243.078,156.158 233.078,186.157 243.078,216.156z" id="XMLID_1807_" fill="#ff5023"/><path d="M153.078,286.156 63.078,286.156 63.078,216.156 73.078,186.157    63.078,156.158 63.078,86.156 153.078,86.156z" id="XMLID_1808_" fill="#bd3c1a"/><rect x="53px" y="276px" width="200px" height="30px" id="XMLID_1809_" fill="#dedde0"/><rect x="53px" y="276px" width="100px" height="30px" id="XMLID_1810_" fill="#cdcdd0"/><rect x="53px" y="66px" width="200px" height="30px" id="XMLID_1811_" fill="#dedde0"/><rect x="53px" y="66px" width="100px" height="30px" id="XMLID_1812_" fill="#cdcdd0"/><path d="M243.078,156.156h-38.047c-10.375-17.929-29.748-30-51.953-30   c-22.204,0-41.577,12.071-51.953,30H63.078v60h38.047c10.376,17.929,29.748,30,51.953,30s41.578-12.071,51.953-30h38.047V156.156z" id="XMLID_1813_" fill="#ffffff"/><path d="M153.078,126.156c-22.204,0-41.577,12.071-51.953,30H63.078v60h38.047   c10.376,17.929,29.748,30,51.953,30C153.078,206.157,153.078,153.49,153.078,126.156z" id="XMLID_1814_" fill="#ffe98f"/><g id="XMLID_1815_"><g id="XMLID_1816_"><ellipse cx="153px" cy="192px" rx="40px" ry="33px" id="XMLID_1817_" fill="#ff5023"/><path d="M153.078,226.156c-22.091,0-40-15.152-40-33.846s17.909-33.846,40-33.846" id="XMLID_1818_" fill="#bd3c1a"/></g><path d="M122.311,163.283c7.967,6.541,18.813,10.565,30.767,10.565    s22.8-4.024,30.766-10.565c0.001-0.001,0.004-0.005,0.004-0.005s-10.318-6.585-20.416-4.526    c-3.484-7.424-10.354-12.596-10.354-12.596s-6.969,5.006-10.43,12.582c-10.073-2.01-20.34,4.54-20.34,4.54L122.311,163.283z" id="L1_190" fill="#91dc5a"/><path d="M153.078,146.156c0,0-6.969,5.006-10.43,12.582    c-10.073-2.01-20.34,4.54-20.34,4.54l0.003,0.005c7.967,6.541,18.813,10.565,30.767,10.565    C153.078,163.285,153.078,146.156,153.078,146.156z" id="XMLID_1819_" fill="#64c37d"/></g></g><g transform="matrix(0.19886708442305814 -0.05328627467229032 0.05328627467229032 0.19886708442305814 132.13393220446397 150.25128962117714)" id="L1_183"><path d="M249.605,60.266C249.864,58.548,250,56.79,250,55c0-19.33-15.67-35-35-35   c-4.367,0-8.544,0.807-12.399,2.268C197.507,9.235,184.836,0,170,0s-27.507,9.235-32.601,22.268C133.544,20.807,129.367,20,125,20   c-19.33,0-35,15.67-35,35c0,1.79,0.136,3.548,0.395,5.266C73.069,62.362,59.641,77.108,59.641,95c0,19.33,15.67,35,35,35   c12.862,0,137.857,0,150.719,0c19.33,0,35-15.67,35-35C280.359,77.108,266.931,62.362,249.605,60.266z" id="XMLID_1041_" fill="#ffe98f"/><path d="M170,0c-14.836,0-27.507,9.235-32.601,22.268C133.544,20.807,129.367,20,125,20   c-19.33,0-35,15.67-35,35c0,1.79,0.136,3.548,0.395,5.266C73.069,62.362,59.641,77.108,59.641,95c0,19.33,15.67,35,35,35H170   C170,130,170,18.076,170,0z" id="XMLID_1042_" fill="#ffda44"/><path d="M60,100 90,340 250,340 280,100z" id="XMLID_1043_" fill="#bd3c1a"/><path d="M200,340 130,340 120,100 210,100z" id="XMLID_1044_" fill="#ff5023"/><path d="M200,340 170,340 170,100 210,100z" id="XMLID_1045_" fill="#ff734f"/><path d="M60,100 90,340 140,340 130,100z" id="XMLID_1046_" fill="#802812"/><g id="XMLID_1047_"><ellipse cx="170px" cy="230px" rx="50px" ry="25px" id="XMLID_1048_" fill="#ffffff"/><path d="M170,255c-27.614,0-50-11.192-50-25s22.386-25,50-25" id="XMLID_1049_" fill="#ffe98f"/></g></g><g transform="matrix(0.17241379618644714 0 0 0.17241379618644714 62.5 237.5)" id="L1_184"><path d="M65,80.581 166.695,15 166.695,125z" id="L1_187" fill="#ffad41"/><path d="M248.717,156.564C252.624,152.154,255,146.355,255,140c0-13.807-11.193-25-25-25   c-1.943,0-3.832,0.229-5.648,0.648c0.42-1.814,0.648-3.705,0.648-5.648c0-13.807-11.193-25-25-25c-3.621,0-7.059,0.775-10.165,2.16   C188.425,74.691,177.847,65,165,65c-8.179,0-15.439,3.928-20,10c-4.561-6.072-11.821-10-20-10c-12.847,0-23.425,9.691-24.835,22.16   C97.059,85.775,93.621,85,90,85c-13.807,0-25,11.193-25,25c0,1.943,0.229,3.834,0.648,5.648C63.832,115.229,61.943,115,60,115   c-13.807,0-25,11.193-25,25c0,6.355,2.376,12.154,6.283,16.564c-4.654,1.732-8.646,4.816-11.518,8.77H145h115.234   C257.363,161.381,253.371,158.297,248.717,156.564z" id="XMLID_1357_" fill="#bd720d"/><path d="M29.766,165.334H145V75c-4.561-6.072-11.821-10-20-10   c-12.847,0-23.425,9.691-24.835,22.16C97.059,85.775,93.621,85,90,85c-13.807,0-25,11.193-25,25c0,1.943,0.229,3.834,0.648,5.648   C63.832,115.229,61.943,115,60,115c-13.807,0-25,11.193-25,25c0,6.355,2.376,12.154,6.283,16.564   C36.629,158.297,32.637,161.381,29.766,165.334z" id="XMLID_1358_" fill="#804c09"/><path d="M196.214,25 281.066,109.853 175,131.066z" id="XMLID_22_" fill="#ffe98f"/><circle cx="185" cy="125" r="30" id="XMLID_1359_" fill="#bd720d"/><path d="M103.786,25 18.934,109.853 125,131.066z" id="XMLID_20_" fill="#ffda44"/><circle cx="115" cy="125" r="30" id="XMLID_1360_" fill="#804c09"/><path d="M275,155H15c-8.284,0-15,6.716-15,15s6.716,15,15,15h10    c0,35.264,26.079,64.424,60,69.277V275h120v-20.723c33.921-4.854,60-34.014,60-69.277h10c8.284,0,15-6.716,15-15    S283.284,155,275,155z" id="XMLID_1362_" fill="#91dc5a"/><path d="M15,155c-8.284,0-15,6.716-15,15s6.716,15,15,15h10    c0,35.264,26.079,64.424,60,69.277V275h60V155H15z" id="XMLID_1364_" fill="#64c37d"/></g><g transform="matrix(0.13333334028720856 0 0 0.13333334028720856 67.5 67.5)" id="L1_185"><path d="M233.873,31.366c0,0-28.378-5.673-52.737,6.117C171.174,14.842,149.999,0,149.999,0   s-21.429,14.305-31.314,37.395c-24.319-11.676-52.558-6.029-52.558-6.029s-7.682,43.532,17.07,68.284   c19.21,19.21,49.726,18.885,62.431,17.777c2.666,2.146,4.371,3.284,4.371,3.284s1.647-1.156,4.225-3.297   c12.617,1.118,43.295,1.52,62.579-17.764C241.555,74.897,233.873,31.366,233.873,31.366z" id="XMLID_868_" fill="#91dc5a"/><path d="M149.999,0c0,0-21.429,14.305-31.314,37.395   c-24.319-11.676-52.558-6.029-52.558-6.029s-7.682,43.532,17.07,68.284c19.21,19.21,49.726,18.885,62.431,17.777   c2.666,2.146,4.371,3.284,4.371,3.284V0z" id="XMLID_869_" fill="#64c37d"/><path d="M270,160c0-49.706-40.294-90-90-90h-60c-49.706,0-90,40.294-90,90   c0,35.686,20.77,66.52,50.881,81.075C86.19,274.471,115.11,300,150,300s63.81-25.529,69.119-58.925   C249.23,226.52,270,195.686,270,160z" id="XMLID_870_" fill="#ff5023"/><path d="M150,70h-30c-49.706,0-90,40.294-90,90c0,35.686,20.77,66.52,50.881,81.075   C86.19,274.471,115.11,300,150,300C150,261,150,120,150,70z" id="XMLID_871_" fill="#bd3c1a"/><circle cx="120" cy="220" r="10" id="XMLID_872_" fill="#ffe98f"/><circle cx="80" cy="170" r="10" id="XMLID_873_" fill="#ffe98f"/><circle cx="110" cy="120" r="10" id="XMLID_874_" fill="#ffe98f"/><circle cx="180" cy="220" r="10" id="XMLID_875_" fill="#fff6d2"/><circle cx="220" cy="170" r="10" id="XMLID_876_" fill="#fff6d2"/><circle cx="190" cy="120" r="10" id="XMLID_877_" fill="#fff6d2"/></g><g transform="matrix(0.11363700777292252 0 0 0.11363700777292252 155 330)" id="L1_186"><path d="M300,159.655c0.919-0.622,1.913-1.163,2.991-1.583l28.3-11.032   c7.815-3.046,16.62,0.819,19.666,8.635c3.046,7.814-0.819,16.619-8.634,19.665l-1.691,0.659l1.691,0.659   c7.815,3.046,11.681,11.851,8.634,19.665c-3.046,7.815-11.852,11.681-19.666,8.635l-28.3-11.032   c-1.078-0.42-2.071-0.961-2.991-1.583L300,159.655L300,159.655z" id="XMLID_1676_" fill="#bd3c1a"/><path d="M260,115.999H50l-50,120h260c33.137,0,60-26.863,60-60   S293.137,115.999,260,115.999z" id="XMLID_1677_" fill="#ff5023"/><path d="M50,115.999 0,235.999 160,235.999 160,115.999z" id="XMLID_1678_" fill="#bd3c1a"/><path d="M80,115.999 50,115.999 0,235.999 30,235.999z" id="XMLID_1679_" fill="#802812"/><circle cx="265" cy="160" r="15" id="XMLID_1680_" fill="#bd3c1a"/><circle cx="200" cy="195" r="10" id="XMLID_1681_" fill="#bd3c1a"/><circle cx="110" cy="165" r="10" id="XMLID_1682_" fill="#802812"/></g><g transform="matrix(0.1230769231915474 0 0 0.1230769231915474 242.5 67.5)" id="L1_188"><g id="XMLID_1077_"><path d="M170.834,286.331c-5.858-5.858-5.858-15.355,0-21.213L291.042,144.91     c5.858-5.858,15.355-5.858,21.213,0l0,0c5.857,5.858,5.857,15.355,0,21.213L192.047,286.331     C186.189,292.189,176.692,292.189,170.834,286.331L170.834,286.331z" id="XMLID_27_" fill="#cdcdd0"/><path d="M273.364,205.013l38.891-38.891c5.857-5.858,5.857-15.355,0-21.213     c-5.858-5.858-15.355-5.858-21.213,0L252.151,183.8L273.364,205.013z" id="XMLID_25_" fill="#ff5023"/></g><path d="M283.352,205h-260c-8.284,0-15,6.716-15,15s6.716,15,15,15h10    c0,35.264,26.079,64.423,60,69.277V325h120v-20.723c33.921-4.854,60-34.014,60-69.277h10c8.284,0,15-6.716,15-15    S291.636,205,283.352,205z" id="XMLID_1081_" fill="#91dc5a"/><path d="M23.352,205c-8.284,0-15,6.716-15,15s6.716,15,15,15h10    c0,35.264,26.079,64.423,60,69.277V325h60V205H23.352z" id="XMLID_1083_" fill="#64c37d"/><path d="M185.352,180c-8.284,0-15-6.716-15-15c0-6.31-1.053-8.777-2.797-12.865    c-2.318-5.434-5.203-12.196-5.203-24.637c0-12.442,2.885-19.204,5.203-24.638c1.744-4.088,2.797-6.556,2.797-12.865    c0-6.308-1.053-8.774-2.796-12.861c-2.318-5.433-5.204-12.194-5.204-24.636c0-12.441,2.885-19.203,5.204-24.636    c1.744-4.087,2.796-6.554,2.796-12.862c0-8.284,6.716-15,15-15s15,6.716,15,15c0,12.441-2.885,19.203-5.204,24.636    c-1.744,4.087-2.796,6.554-2.796,12.862s1.053,8.774,2.796,12.861c2.318,5.433,5.204,12.195,5.204,24.636    c0,12.442-2.885,19.204-5.203,24.638c-1.744,4.088-2.797,6.556-2.797,12.865c0,6.31,1.053,8.777,2.797,12.865    c2.318,5.434,5.203,12.196,5.203,24.637C200.352,173.284,193.636,180,185.352,180z" id="XMLID_1085_" fill="#ffe98f"/><path d="M129.352,180c-8.284,0-15-6.716-15-15c0-6.31-1.053-8.777-2.797-12.865    c-2.318-5.434-5.203-12.196-5.203-24.637c0-12.442,2.885-19.204,5.203-24.638c1.744-4.088,2.797-6.556,2.797-12.865    c0-6.308-1.053-8.774-2.796-12.861c-2.318-5.433-5.204-12.194-5.204-24.636c0-8.284,6.716-15,15-15s15,6.716,15,15    c0,6.308,1.053,8.774,2.796,12.862c2.318,5.433,5.204,12.194,5.204,24.635c0,12.442-2.885,19.204-5.203,24.638    c-1.744,4.088-2.797,6.556-2.797,12.865c0,6.31,1.053,8.777,2.797,12.865c2.318,5.434,5.203,12.196,5.203,24.637    C144.352,173.284,137.636,180,129.352,180z" id="XMLID_1087_" fill="#ffda44"/></g><g transform="matrix(0.05263157933950424 0 0 0.05263157933950424 77.5 340)" id="L1_189"><path d="M315.603,130H190H64.396C28.831,130,0,158.747,0,194.314V210   c0,22.091,17.908,40,39.999,40H190h150c22.091,0,40-17.909,40-40v-15.686C380,158.747,351.169,130,315.603,130z" id="XMLID_1134_" fill="#ffad41"/><path d="M190,130H64.396C28.831,130,0,158.747,0,194.314V210c0,22.091,17.908,40,39.999,40   H190V130z" id="XMLID_1135_" fill="#ff9811"/><path d="M85,130v35c0,8.284,6.716,15,15,15s15-6.716,15-15v-35H85z" id="XMLID_1136_" fill="#bd720d"/><path d="M175,130v35c0,8.284,6.716,15,15,15s15-6.716,15-15v-35H175z" id="XMLID_1137_" fill="#ff9811"/><path d="M265,130v35c0,8.284,6.716,15,15,15s15-6.716,15-15v-35H265z" id="XMLID_1138_" fill="#ff9811"/><path d="M175,130v35c0,8.284,6.716,15,15,15s15-6.716,15-15v-35H175z" id="XMLID_1139_" fill="#ff9811"/><path d="M175,130v35c0,8.284,6.716,15,15,15c0-22.333,0-50,0-50H175z" id="XMLID_1140_" fill="#bd720d"/></g><g transform="matrix(0.25 0 0 0.25 217.5 217.5)" id="L1_191"><path d="M230,35c-12.881,0-24.889,3.782-35,10.271V15c0-8.284-6.716-15-15-15   s-15,6.716-15,15v30.271C154.889,38.782,142.881,35,130,35c-8.284,0-15,6.716-15,15s6.716,15,15,15c19.299,0,35,15.701,35,35v23h30   v-23c0-19.299,15.701-35,35-35c8.284,0,15-6.716,15-15S238.284,35,230,35z" id="XMLID_879_" fill="#91dc5a"/><path d="M180,123c0,0,0-110.304,0-123c-8.284,0-15,6.716-15,15v30.271   C154.889,38.782,142.881,35,130,35c-8.284,0-15,6.716-15,15s6.716,15,15,15c19.299,0,35,15.701,35,35v23H180z" id="XMLID_880_" fill="#64c37d"/><path d="M240,200c0,110-60,160-60,160s-60-50-60-160v-60c0-33.137,26.863-60,60-60l0,0   c33.137,0,60,26.863,60,60V200z" id="XMLID_881_" fill="#ffad41"/><path d="M180,360c0,0-60-50-60-160v-60c0-33.137,26.863-60,60-60l0,0   C180,147,180,360,180,360z" id="XMLID_882_" fill="#ff9811"/><path d="M150,170h-30v20h30c5.523,0,10-4.477,10-10S155.523,170,150,170z" id="XMLID_883_" fill="#bd720d"/><path d="M210,160h30v-20h-30c-5.523,0-10,4.477-10,10S204.477,160,210,160z" id="XMLID_17_" fill="#ff9811"/><path d="M160,240c0-5.523-4.477-10-10-10h-28.446c0.735,6.961,1.714,13.624,2.89,20H150   C155.523,250,160,245.523,160,240z" id="XMLID_884_" fill="#bd720d"/><path d="M200,210c0,5.523,4.477,10,10,10h29.32c0.443-6.432,0.68-13.098,0.68-20h-30   C204.477,200,200,204.477,200,210z" id="XMLID_885_" fill="#ff9811"/></g></defs><g fi:class="KUsePattern"><pattern id="pattern_L1_180" width="350" height="350" patternUnits="userSpaceOnUse"><use xlink:href="#L1_180" x="-350" y="-350"/><use xlink:href="#L1_180" x="0" y="-350"/><use xlink:href="#L1_180" x="350" y="-350"/><use xlink:href="#L1_180" x="-350" y="0"/><use xlink:href="#L1_180" x="0" y="0"/><use xlink:href="#L1_180" x="350" y="0"/><use xlink:href="#L1_180" x="-350" y="350"/><use xlink:href="#L1_180" x="0" y="350"/><use xlink:href="#L1_180" x="350" y="350"/></pattern><rect x="0" y="0" width="100%" height="100%" fill="url(#pattern_L1_180)"/></g><g fi:class="KUsePattern"><pattern id="pattern_L1_181" width="350" height="350" patternUnits="userSpaceOnUse"><use xlink:href="#L1_181" x="-350" y="-350"/><use xlink:href="#L1_181" x="0" y="-350"/><use xlink:href="#L1_181" x="350" y="-350"/><use xlink:href="#L1_181" x="-350" y="0"/><use xlink:href="#L1_181" x="0" y="0"/><use xlink:href="#L1_181" x="350" y="0"/><use xlink:href="#L1_181" x="-350" y="350"/><use xlink:href="#L1_181" x="0" y="350"/><use xlink:href="#L1_181" x="350" y="350"/></pattern><rect x="0" y="0" width="100%" height="100%" fill="url(#pattern_L1_181)"/></g><g fi:class="KUsePattern"><pattern id="pattern_L1_182" width="350" height="350" patternUnits="userSpaceOnUse"><use xlink:href="#L1_182" x="-350" y="-350"/><use xlink:href="#L1_182" x="0" y="-350"/><use xlink:href="#L1_182" x="350" y="-350"/><use xlink:href="#L1_182" x="-350" y="0"/><use xlink:href="#L1_182" x="0" y="0"/><use xlink:href="#L1_182" x="350" y="0"/><use xlink:href="#L1_182" x="-350" y="350"/><use xlink:href="#L1_182" x="0" y="350"/><use xlink:href="#L1_182" x="350" y="350"/></pattern><rect x="0" y="0" width="100%" height="100%" fill="url(#pattern_L1_182)"/></g><g fi:class="KUsePattern"><pattern id="pattern_L1_183" width="350" height="350" patternUnits="userSpaceOnUse"><use xlink:href="#L1_183" x="-350" y="-350"/><use xlink:href="#L1_183" x="0" y="-350"/><use xlink:href="#L1_183" x="350" y="-350"/><use xlink:href="#L1_183" x="-350" y="0"/><use xlink:href="#L1_183" x="0" y="0"/><use xlink:href="#L1_183" x="350" y="0"/><use xlink:href="#L1_183" x="-350" y="350"/><use xlink:href="#L1_183" x="0" y="350"/><use xlink:href="#L1_183" x="350" y="350"/></pattern><rect x="0" y="0" width="100%" height="100%" fill="url(#pattern_L1_183)"/></g><g fi:class="KUsePattern"><pattern id="pattern_L1_184" width="350" height="350" patternUnits="userSpaceOnUse"><use xlink:href="#L1_184" x="-350" y="-350"/><use xlink:href="#L1_184" x="0" y="-350"/><use xlink:href="#L1_184" x="350" y="-350"/><use xlink:href="#L1_184" x="-350" y="0"/><use xlink:href="#L1_184" x="0" y="0"/><use xlink:href="#L1_184" x="350" y="0"/><use xlink:href="#L1_184" x="-350" y="350"/><use xlink:href="#L1_184" x="0" y="350"/><use xlink:href="#L1_184" x="350" y="350"/></pattern><rect x="0" y="0" width="100%" height="100%" fill="url(#pattern_L1_184)"/></g><g fi:class="KUsePattern"><pattern id="pattern_L1_185" width="350" height="350" patternUnits="userSpaceOnUse"><use xlink:href="#L1_185" x="-350" y="-350"/><use xlink:href="#L1_185" x="0" y="-350"/><use xlink:href="#L1_185" x="350" y="-350"/><use xlink:href="#L1_185" x="-350" y="0"/><use xlink:href="#L1_185" x="0" y="0"/><use xlink:href="#L1_185" x="350" y="0"/><use xlink:href="#L1_185" x="-350" y="350"/><use xlink:href="#L1_185" x="0" y="350"/><use xlink:href="#L1_185" x="350" y="350"/></pattern><rect x="0" y="0" width="100%" height="100%" fill="url(#pattern_L1_185)"/></g><g fi:class="KUsePattern"><pattern id="pattern_L1_186" width="350" height="350" patternUnits="userSpaceOnUse"><use xlink:href="#L1_186" x="-350" y="-350"/><use xlink:href="#L1_186" x="0" y="-350"/><use xlink:href="#L1_186" x="350" y="-350"/><use xlink:href="#L1_186" x="-350" y="0"/><use xlink:href="#L1_186" x="0" y="0"/><use xlink:href="#L1_186" x="350" y="0"/><use xlink:href="#L1_186" x="-350" y="350"/><use xlink:href="#L1_186" x="0" y="350"/><use xlink:href="#L1_186" x="350" y="350"/></pattern><rect x="0" y="0" width="100%" height="100%" fill="url(#pattern_L1_186)"/></g><g fi:class="KUsePattern"><pattern id="pattern_L1_188" width="350" height="350" patternUnits="userSpaceOnUse"><use xlink:href="#L1_188" x="-350" y="-350"/><use xlink:href="#L1_188" x="0" y="-350"/><use xlink:href="#L1_188" x="350" y="-350"/><use xlink:href="#L1_188" x="-350" y="0"/><use xlink:href="#L1_188" x="0" y="0"/><use xlink:href="#L1_188" x="350" y="0"/><use xlink:href="#L1_188" x="-350" y="350"/><use xlink:href="#L1_188" x="0" y="350"/><use xlink:href="#L1_188" x="350" y="350"/></pattern><rect x="0" y="0" width="100%" height="100%" fill="url(#pattern_L1_188)"/></g><g fi:class="KUsePattern"><pattern id="pattern_L1_189" width="350" height="350" patternUnits="userSpaceOnUse"><use xlink:href="#L1_189" x="-350" y="-350"/><use xlink:href="#L1_189" x="0" y="-350"/><use xlink:href="#L1_189" x="350" y="-350"/><use xlink:href="#L1_189" x="-350" y="0"/><use xlink:href="#L1_189" x="0" y="0"/><use xlink:href="#L1_189" x="350" y="0"/><use xlink:href="#L1_189" x="-350" y="350"/><use xlink:href="#L1_189" x="0" y="350"/><use xlink:href="#L1_189" x="350" y="350"/></pattern><rect x="0" y="0" width="100%" height="100%" fill="url(#pattern_L1_189)"/></g><g fi:class="KUsePattern"><pattern id="pattern_L1_191" width="350" height="350" patternUnits="userSpaceOnUse"><use xlink:href="#L1_191" x="-350" y="-350"/><use xlink:href="#L1_191" x="0" y="-350"/><use xlink:href="#L1_191" x="350" y="-350"/><use xlink:href="#L1_191" x="-350" y="0"/><use xlink:href="#L1_191" x="0" y="0"/><use xlink:href="#L1_191" x="350" y="0"/><use xlink:href="#L1_191" x="-350" y="350"/><use xlink:href="#L1_191" x="0" y="350"/><use xlink:href="#L1_191" x="350" y="350"/></pattern><rect x="0" y="0" width="100%" height="100%" fill="url(#pattern_L1_191)"/></g></svg>